<svg xmlns="http://www.w3.org/2000/svg" width="38" height="50" viewBox="0 0 38 50">
    <g fill="none" fill-rule="evenodd" stroke="#4B4B4B" stroke-linecap="round" stroke-linejoin="round" stroke-width="2">
        <path d="M22.535 1.997c-1.28-1.408-3.463-1.51-4.87-.23L1.997 16.027c-1.408 1.28-1.51 3.463-.23 4.87l12.16 13.36c1.28 1.408 3.463 1.51 4.87.23l15.668-14.26c1.407-1.28 1.51-3.463.23-4.87l-12.16-13.36z" transform="translate(1 1)"/>
        <path d="M1.899 23.371c-1.355 1.232-1.453 3.33-.22 4.683L13.368 40.9c1.233 1.354 3.33 1.453 4.683.22l15.065-13.71c1.354-1.232 1.453-3.329.22-4.683" transform="translate(1 1)"/>
        <path d="M1.86 29.62c-1.333 1.214-1.43 3.278-.216 4.611l11.509 12.647c1.213 1.333 3.277 1.43 4.61.217l14.831-13.497c1.333-1.214 1.43-3.278.217-4.611M7.592 17.945L19.592 6.945" transform="translate(1 1)"/>
    </g>
</svg>
