<svg xmlns="http://www.w3.org/2000/svg" width="65" height="60" viewBox="0 0 65 60">
    <g fill="none" fill-rule="evenodd">
        <path stroke="#EBCB80" stroke-linecap="round" stroke-width="2" d="M63.635 6.155c0-2.847-2.311-5.158-5.158-5.158H6.155C3.308.997.997 3.308.997 6.155v41.428c0 2.847 2.311 5.158 5.158 5.158h52.322c2.847 0 5.158-2.311 5.158-5.158V6.155z"/>
        <path stroke="#EBCB80" stroke-linecap="round" stroke-width="2" d="M54.103 13.143c0-1.944-1.578-3.522-3.522-3.522h-36.53c-1.944 0-3.522 1.578-3.522 3.522v27.452c0 1.944 1.578 3.522 3.522 3.522h36.53c1.944 0 3.522-1.578 3.522-3.522V13.143z"/>
        <path stroke="#EBCB80" stroke-linecap="round" stroke-width="2" d="M32.386 18.29c-1.086-.525-2.261-.84-3.464-.928l-1.28 2.522c-1.324.111-2.589.597-3.647 1.4l-2.639-1.017c-.835.87-1.498 1.89-1.953 3.007l2.002 1.997c-.303 1.293-.232 2.646.205 3.901l-1.783 2.195c.57 1.064 1.335 2.01 2.257 2.787l2.518-1.287c1.136.688 2.445 1.038 3.773 1.01l1.537 2.375c1.187-.213 2.323-.65 3.348-1.285l-.446-2.793c1.005-.868 1.743-2.004 2.127-3.276l2.733-.728c.164-1.195.1-2.41-.188-3.581l-2.794-.439c-.515-1.224-1.367-2.277-2.458-3.036l.152-2.824zm-3.535 6.263c1.279.343 2.039 1.659 1.696 2.937-.343 1.278-1.658 2.038-2.937 1.695-1.278-.342-2.038-1.658-1.695-2.936.342-1.279 1.658-2.038 2.936-1.696h0zM45.933 21.422L45.933 30.954"/>
        <path fill="#EBCB80" d="M45.933 29.593c1.503 0 2.723 1.22 2.723 2.723s-1.22 2.723-2.723 2.723-2.723-1.22-2.723-2.723 1.22-2.723 2.723-2.723zM45.933 17.952c1.503 0 2.723 1.22 2.723 2.723s-1.22 2.723-2.723 2.723-2.723-1.22-2.723-2.723 1.22-2.723 2.723-2.723z"/>
        <path stroke="#EBCB80" stroke-linecap="round" stroke-width="2" d="M10.529 58.188L18.699 58.188 18.699 52.741 10.529 52.741zM45.933 58.188L54.103 58.188 54.103 52.741 45.933 52.741z"/>
    </g>
</svg>
