<svg xmlns="http://www.w3.org/2000/svg" width="60" height="65" viewBox="0 0 60 65">
    <g fill="none" fill-rule="evenodd" stroke="#EBCB80" stroke-linecap="round" stroke-linejoin="round" stroke-width="2">
        <path d="M55.465 0.997L0.997 55.465 0.997 0.997z"/>
        <path d="M33.678 10.529L11.891 32.316 11.891 10.529zM2.359 7.805L6.444 7.805M2.359 21.422L6.444 21.422M2.359 14.614L6.444 14.614M2.359 35.039L6.444 35.039M2.359 28.231L6.444 28.231M21.834 50.679L46.887 23.394M48.882 63.556L54.264 26.906M54.673 16.544c2.714 1.292 3.869 4.545 2.577 7.26-1.292 2.714-4.545 3.868-7.26 2.576-2.714-1.292-3.868-4.545-2.576-7.26 1.292-2.714 4.545-3.868 7.259-2.576h0z"/>
        <path d="M52.917 20.232c.679.323.967 1.137.644 1.815-.323.679-1.136.968-1.815.644-.678-.323-.967-1.136-.644-1.814.323-.679 1.137-.968 1.815-.645h0zM58.185 9.167L55.258 15.315M33.599 29.133c6.347 8.098 13.521 11.969 24.59 11.706"/>
    </g>
</svg>
