<?xml version="1.0" standalone="no"?>
<!DOCTYPE svg PUBLIC "-//W3C//DTD SVG 20010904//EN"
 "http://www.w3.org/TR/2001/REC-SVG-20010904/DTD/svg10.dtd">
<svg version="1.0" xmlns="http://www.w3.org/2000/svg"
 width="80" height="60"  viewBox="0 0 250.000000 250.000000"
 preserveAspectRatio="xMidYMid meet" >





<metadata>
Created by potrace 1.16, written by Peter Selinger 2001-2019
</metadata>
<g transform="translate(0.000000,250.000000) scale(0.100000,-0.100000)"
fill="#000000" stroke="none">
<path  fill="white" d="M750 1784 c-36 -7 -101 -31 -145 -53 -74 -37 -98 -58 -330 -290 -137
-138 -251 -255 -253 -260 -1 -4 72 -9 162 -10 l165 -2 157 161 c130 133 169
166 223 193 l66 32 515 3 516 3 119 119 120 120 -625 -1 c-495 0 -639 -3 -690
-15z"/>
<path  fill="white" d="M1817 1492 c-169 -170 -307 -311 -307 -314 0 -3 83 -6 184 -7 l185 0
309 314 308 315 -186 0 -186 0 -307 -308z"/>
<path  fill="white" d="M835 1516 c-100 -25 -118 -39 -339 -264 l-80 -81 164 0 163 0 61 59
c34 32 74 64 89 69 18 7 147 11 350 11 l322 0 110 110 110 110 -450 -1 c-322
0 -464 -4 -500 -13z"/>
<path   fill="white" d="M1688 1063 c-16 -4 -18 -21 -18 -179 l0 -174 25 0 25 0 0 174 c0 96
-3 177 -7 179 -5 2 -16 2 -25 0z"/>
<path  fill="white" d="M0 885 l0 -175 25 0 c24 0 25 2 25 75 l0 74 107 3 c101 3 106 4 109
25 4 22 1 22 -104 25 l-107 3 -3 53 -3 52 110 0 c104 0 111 1 111 20 0 19 -7
20 -135 20 l-135 0 0 -175z"/>
<path   fill="white" d="M2180 1041 c0 -17 8 -20 48 -23 l47 -3 3 -132 3 -133 -56 0 c-48 0
-55 -2 -55 -20 0 -19 7 -20 130 -20 123 0 130 1 130 20 0 17 -7 20 -50 20
l-50 0 0 143 c0 98 -4 147 -12 155 -7 7 -39 12 -75 12 -56 0 -63 -2 -63 -19z"/>
<path  fill="white" d="M360 982 c-80 -40 -80 -229 0 -269 34 -17 133 -16 176 2 42 17 64 63
64 135 0 72 -22 118 -64 135 -48 20 -133 19 -176 -3z m167 -44 c9 -7 13 -37
13 -89 0 -69 -2 -80 -22 -93 -12 -9 -43 -16 -68 -16 -25 0 -56 7 -68 16 -20
13 -22 24 -22 93 0 83 6 95 50 104 34 7 101 -2 117 -15z"/>
<path  fill="white" d="M732 991 c-40 -4 -66 -12 -72 -21 -5 -8 -10 -70 -10 -137 l0 -123 25
0 25 0 0 108 c0 71 4 112 12 120 7 7 29 12 50 12 34 0 38 3 38 25 0 14 -1 24
-2 23 -2 0 -31 -4 -66 -7z"/>
<path  fill="white" d="M850 850 l0 -140 24 0 c24 0 24 1 28 109 1 60 6 112 9 116 12 11 104
16 119 6 12 -8 15 -34 15 -121 l0 -110 28 0 27 0 0 108 c0 71 4 112 12 120 18
18 94 15 112 -4 13 -12 16 -38 16 -120 l0 -104 25 0 25 0 0 114 c0 99 -3 117
-21 140 -18 23 -27 26 -84 26 -53 0 -66 -4 -78 -20 l-14 -20 -18 20 c-23 25
-125 29 -149 5 -8 -8 -17 -15 -20 -15 -3 0 -6 7 -6 15 0 9 -9 15 -25 15 l-25
0 0 -140z"/>
<path  fill="white" d="M1348 873 c6 -165 4 -163 142 -163 l110 0 0 140 0 140 -25 0 -25 0 0
-120 0 -120 -63 0 c-36 0 -68 5 -75 12 -8 8 -12 49 -12 120 l0 108 -28 0 -28
0 4 -117z"/>
<path  fill="white" d="M1780 970 c0 -18 7 -20 86 -20 52 0 83 -4 79 -10 -3 -5 -44 -34 -90
-64 -93 -61 -110 -88 -84 -135 14 -25 17 -26 137 -29 l122 -3 0 121 c0 159 -1
160 -145 160 -98 0 -105 -1 -105 -20z m200 -145 l0 -75 -74 0 c-79 0 -92 7
-82 43 5 19 126 106 149 107 4 0 7 -34 7 -75z"/>
</g>
</svg>
